<?xml version="1.0" standalone="no"?>
<!DOCTYPE svg PUBLIC "-//W3C//DTD SVG 20010904//EN"
 "http://www.w3.org/TR/2001/REC-SVG-20010904/DTD/svg10.dtd">
<svg version="1.0" xmlns="http://www.w3.org/2000/svg"
 width="260.000000pt" height="260.000000pt" viewBox="0 0 260.000000 260.000000"
 preserveAspectRatio="xMidYMid meet">
<metadata>
Created by potrace 1.14, written by Peter Selinger 2001-2017
</metadata>
<g transform="translate(0.000000,260.000000) scale(0.100000,-0.100000)"
fill="#000000" stroke="none">
<path d="M100 1690 c0 -20 4 -20 940 -18 517 2 940 0 940 -3 0 -4 18 -3 40 1
22 4 40 4 40 0 0 -4 18 -4 40 0 22 4 40 4 40 0 0 -4 18 -4 40 0 22 4 40 5 40
1 0 -3 63 -5 140 -3 131 3 140 4 140 23 0 19 -17 19 -1200 19 -1195 0 -1200 0
-1200 -20z"/>
<path d="M1270 1623 c0 -5 -16 -9 -36 -9 -61 0 -69 -20 -67 -165 0 -68 1 -132
2 -141 2 -27 38 -40 104 -39 77 1 99 19 95 75 -3 34 -7 41 -30 47 -25 7 -29 4
-36 -24 -6 -22 -15 -33 -30 -35 -27 -4 -43 31 -31 70 4 15 4 30 0 32 -6 4 -6
51 -1 66 1 3 1 13 0 24 -1 10 4 22 10 26 15 9 49 1 51 -11 1 -5 2 -14 3 -20 1
-16 40 -29 56 -19 9 5 11 22 8 54 -7 55 -5 53 -43 57 -16 2 -36 7 -42 12 -8 6
-13 6 -13 0z"/>
<path d="M1636 1623 c-4 -5 -17 -9 -29 -9 -12 -1 -29 -2 -37 -3 -27 -2 -35
-45 -34 -179 1 -117 3 -134 20 -147 22 -17 150 -20 174 -5 12 8 15 37 15 164
0 85 -3 158 -7 161 -4 4 -24 8 -45 9 -21 0 -41 4 -44 9 -3 4 -9 4 -13 0z m43
-133 c1 -36 3 -84 4 -108 1 -23 -1 -42 -5 -42 -17 0 -24 -2 -35 -12 -9 -7 -13
-7 -13 1 0 7 -5 9 -11 6 -7 -5 -10 18 -7 74 2 45 0 81 -4 81 -5 0 -3 22 7 55
1 6 16 10 32 10 l30 1 2 -66z"/>
<path d="M105 1612 c-3 -3 -5 -81 -5 -173 0 -137 3 -168 15 -172 8 -4 17 -2
20 2 3 5 20 5 39 1 19 -4 38 -5 41 -2 3 3 18 6 33 7 24 0 27 4 28 35 0 20 3
41 7 47 10 17 -32 53 -57 49 -17 -2 -20 -9 -18 -35 3 -21 -1 -33 -13 -37 -9
-4 -18 -4 -21 -1 -3 3 -5 67 -5 141 1 75 -2 137 -6 137 -30 5 -53 5 -58 1z"/>
<path d="M391 1602 c-5 -10 -14 -42 -21 -72 -7 -30 -15 -59 -19 -65 -3 -5 -6
-14 -7 -20 -2 -12 -33 -132 -40 -157 -4 -15 1 -18 26 -18 26 0 33 6 45 35 13
31 18 34 50 31 41 -3 49 -9 50 -39 0 -18 6 -22 33 -24 35 -1 50 15 36 39 -4 7
-9 22 -11 33 -5 28 -9 47 -16 65 -26 71 -43 140 -33 140 6 0 4 5 -6 10 -10 6
-14 18 -11 30 4 15 0 20 -13 21 -11 0 -27 2 -37 4 -9 2 -21 -4 -26 -13z m44
-142 c-2 -9 0 -23 5 -30 14 -23 1 -41 -21 -29 -15 7 -18 16 -13 32 4 12 7 27
7 33 0 6 6 11 13 11 7 0 11 -8 9 -17z"/>
<path d="M659 1617 c-1 -1 -3 -78 -4 -170 -1 -152 0 -169 16 -178 12 -6 20 -5
24 1 4 6 10 8 15 5 4 -3 10 4 13 15 3 11 1 20 -5 20 -5 0 -6 6 -2 12 11 18 12
48 2 48 -5 0 -5 8 0 18 5 9 8 28 6 42 -4 24 -3 24 11 6 8 -11 15 -24 15 -28 0
-5 8 -20 17 -35 10 -14 18 -32 19 -40 2 -8 10 -23 18 -32 9 -10 14 -20 11 -23
-3 -3 9 -5 27 -4 l33 1 1 155 c0 85 -3 163 -8 172 -5 11 -18 17 -33 16 -27 -3
-27 -4 -27 -100 0 -32 -3 -58 -8 -58 -9 0 -70 119 -70 138 0 6 -8 12 -17 13
-10 0 -26 2 -35 4 -10 2 -19 3 -19 2z"/>
<path d="M984 1588 c-8 -15 -14 -36 -14 -47 0 -11 -5 -23 -10 -26 -6 -4 -8
-10 -5 -15 3 -5 1 -20 -5 -34 -5 -15 -12 -37 -14 -49 -2 -12 -12 -48 -21 -81
-14 -48 -15 -60 -4 -67 7 -4 18 -4 25 1 6 6 13 7 17 4 3 -3 11 10 18 30 10 29
18 35 38 34 47 -1 60 -9 63 -36 3 -24 7 -27 38 -27 21 0 34 5 33 12 -1 6 -5
24 -7 40 -3 15 -14 54 -25 85 -11 31 -17 59 -14 62 3 3 0 12 -7 21 -7 8 -9 15
-6 15 4 0 2 8 -3 18 -6 11 -12 31 -15 47 -6 35 -12 40 -43 40 -17 1 -29 -7
-39 -27z m47 -125 c13 -34 4 -74 -15 -67 -14 5 -19 54 -5 54 4 0 6 9 4 20 -6
29 4 25 16 -7z"/>
<path d="M1416 1610 c-2 -3 -3 -79 -2 -170 l1 -165 33 -3 c17 -2 33 0 33 5 6
35 3 317 -3 326 -7 12 -57 18 -62 7z"/>
<path d="M1809 1607 c-11 -10 -14 -49 -13 -163 0 -83 4 -155 8 -162 10 -16 53
-15 58 1 2 6 4 46 4 89 -1 60 2 74 11 66 7 -6 11 -14 8 -18 -3 -5 -2 -10 3
-12 4 -1 21 -28 36 -58 37 -72 53 -89 77 -83 21 6 20 -4 21 199 0 73 -2 136
-5 141 -3 5 -19 10 -34 11 l-29 2 -1 -64 c0 -35 -3 -69 -7 -74 -3 -6 0 -12 6
-15 7 -2 10 -7 7 -11 -9 -10 -41 23 -34 35 4 5 2 9 -3 9 -4 0 -14 16 -22 35
-8 19 -17 35 -22 35 -4 0 -8 9 -8 20 0 11 -4 20 -9 20 -5 0 -16 3 -24 6 -8 3
-21 -1 -28 -9z"/>
<path d="M2142 1607 c-6 -7 -20 -50 -32 -97 -12 -47 -24 -92 -27 -100 -6 -14
-11 -37 -17 -67 -1 -7 -5 -16 -9 -19 -4 -4 -7 -18 -7 -31 0 -21 4 -24 32 -21
26 2 33 9 40 33 7 27 12 31 48 32 33 1 47 -6 38 -19 -1 -2 4 -13 11 -26 10
-18 19 -22 44 -20 20 2 31 8 29 16 -1 7 -4 20 -6 30 -1 9 -6 24 -9 32 -3 8 -8
26 -11 40 -7 32 -4 21 -35 129 -24 86 -29 94 -53 97 -15 1 -31 -3 -36 -9z m44
-179 c1 -21 -4 -28 -17 -28 -21 0 -34 16 -19 25 5 3 10 21 10 38 1 29 2 30 13
12 6 -11 12 -32 13 -47z"/>
<path d="M2328 1616 c0 -1 -2 -78 -3 -172 l-2 -172 88 -1 89 -2 0 66 c0 36 -3
65 -7 66 -5 0 -17 2 -28 4 -24 5 -35 -11 -35 -48 0 -22 -4 -28 -17 -25 -16 3
-18 18 -19 133 -1 72 -2 135 -3 141 -1 8 -50 15 -63 10z"/>
<path d="M2432 1606 c-3 -6 -8 -20 -9 -31 -2 -16 -1 -17 6 -5 5 8 7 18 4 24
-3 5 -1 6 5 3 13 -9 9 -36 -7 -47 -10 -6 -11 -12 -2 -26 11 -18 11 -18 9 1 -2
16 3 20 28 20 28 0 30 3 29 32 0 18 -5 36 -9 40 -5 4 -6 3 -2 -4 4 -7 5 -13 2
-13 -2 0 -13 -3 -23 -7 -15 -6 -16 -4 -6 8 10 13 10 16 -3 16 -8 0 -18 -5 -22
-11z m48 -26 c-12 -8 -12 -10 -1 -10 8 0 12 -3 8 -6 -9 -9 -28 6 -22 17 4 5
12 9 18 9 7 0 6 -4 -3 -10z"/>
<path d="M2451 1511 c0 -10 2 -12 6 -3 2 6 8 10 12 8 4 -3 13 -1 20 3 9 6 4 9
-13 9 -18 0 -26 -6 -25 -17z"/>
<path d="M142 1212 c-34 -3 -43 -7 -40 -20 4 -18 85 -36 90 -20 2 5 15 5 30
-1 15 -5 28 -6 30 -2 2 5 24 6 50 2 27 -5 49 -4 50 1 2 5 15 5 30 -1 15 -5 28
-6 30 -2 2 5 24 6 50 2 27 -5 49 -4 50 1 2 5 15 5 30 -1 15 -5 28 -6 30 -2 2
5 24 6 51 1 26 -4 47 -4 47 -1 0 3 162 6 360 6 198 0 360 -4 360 -8 0 -5 5 -5
11 -1 15 9 254 8 270 -2 7 -4 10 -3 6 2 -3 5 37 9 94 9 54 0 99 -3 99 -7 0 -4
7 -5 16 -1 25 9 584 9 584 -1 0 -5 7 -3 15 4 22 18 18 40 -7 41 -13 0 -33 2
-45 3 -13 2 -23 -2 -23 -8 0 -6 -5 -5 -12 2 -16 16 -31 15 -22 0 5 -9 2 -9 -9
1 -12 9 -17 10 -17 2 0 -7 -5 -9 -12 -4 -23 14 -50 14 -42 1 5 -9 2 -9 -9 1
-12 9 -17 10 -17 2 0 -7 -5 -9 -12 -5 -15 9 -88 12 -88 3 0 -4 -17 -3 -37 2
-24 5 -39 4 -41 -2 -2 -5 -8 -7 -13 -3 -17 10 -189 10 -193 -1 -2 -5 -5 -4 -5
4 -1 11 -4 11 -16 1 -8 -7 -15 -8 -15 -3 0 5 -9 9 -20 10 -11 1 -20 -3 -20 -8
0 -6 -5 -7 -11 -3 -16 10 -189 11 -189 1 0 -5 -5 -5 -10 -2 -18 11 -190 11
-194 0 -2 -5 -5 -4 -5 4 -1 11 -4 11 -16 1 -8 -7 -15 -8 -15 -3 0 13 -33 12
-42 -1 -5 -7 -8 -6 -8 3 0 11 -3 11 -15 1 -8 -7 -15 -9 -15 -4 0 13 -80 12
-80 -1 0 -5 -5 -3 -10 5 -7 11 -10 11 -10 2 0 -7 -5 -10 -11 -6 -18 11 -129
10 -129 -1 0 -5 -5 -3 -10 5 -7 11 -10 11 -10 2 0 -7 -5 -10 -11 -6 -18 11
-129 10 -129 -1 0 -5 -5 -3 -10 5 -7 11 -10 11 -10 2 0 -8 -5 -10 -12 -6 -18
11 -128 10 -128 -1 0 -5 -5 -3 -10 5 -7 11 -10 11 -10 2 0 -8 -5 -10 -12 -6
-18 11 -128 10 -128 -1 0 -5 -5 -3 -10 5 -7 11 -10 11 -10 2 0 -7 -5 -10 -11
-6 -17 10 -129 11 -129 1 0 -5 -5 -5 -10 -2 -16 10 -150 11 -150 1 0 -5 -6 -4
-13 2 -8 7 -18 7 -27 2 -8 -5 -17 -6 -20 -2 -3 4 -24 6 -48 4z"/>
<path d="M601 1026 c-7 -8 -14 -24 -16 -35 -2 -12 -11 -35 -19 -51 -19 -38 1
-60 27 -30 21 25 28 25 59 1 16 -13 29 -17 39 -10 10 6 11 9 1 9 -7 0 -12 6
-11 13 1 6 -3 25 -9 40 -7 16 -12 32 -12 37 0 11 -29 40 -39 40 -5 0 -14 -6
-20 -14z m28 -70 c-6 -6 -13 -6 -21 2 -9 9 -9 12 0 12 7 0 12 8 13 18 0 14 2
14 9 -3 4 -11 4 -24 -1 -29z"/>
<path d="M755 1025 c-3 -8 -7 -22 -10 -30 -2 -8 -1 -15 3 -15 4 0 7 -19 7 -42
0 -41 0 -42 38 -43 21 0 43 5 49 12 7 9 7 13 -1 14 -6 1 -15 3 -21 4 -5 1 -16
3 -24 4 -10 1 -13 15 -11 50 2 35 -2 52 -12 55 -7 3 -16 -1 -18 -9z"/>
<path d="M905 971 c3 -81 2 -78 20 -78 8 0 13 2 11 4 -2 2 0 20 4 39 4 18 4
34 0 34 -5 0 -7 9 -5 20 5 28 -3 47 -19 47 -11 0 -13 -16 -11 -66z"/>
<path d="M1009 1025 c-6 -63 -2 -114 8 -124 16 -15 21 -4 19 41 -3 43 9 42 17
-1 7 -35 47 -63 47 -34 0 10 8 28 18 41 l18 23 -4 -35 c-4 -30 -1 -36 15 -36
16 0 19 8 19 63 0 63 -11 82 -39 71 -14 -5 -33 -49 -29 -66 1 -5 -3 -8 -8 -8
-10 0 -32 43 -34 64 -2 16 -46 17 -47 1z"/>
<path d="M1242 1031 c-7 -5 -9 -108 -3 -132 1 -7 88 -5 95 2 3 2 1 11 -4 19
-7 11 -11 11 -24 1 -12 -10 -16 -10 -16 -2 0 7 -5 9 -11 5 -7 -4 -10 1 -7 12
2 11 10 19 18 20 44 3 46 4 27 19 -11 7 -26 11 -34 8 -11 -4 -14 -2 -11 8 4
13 10 15 50 18 10 0 15 7 12 14 -4 13 -76 19 -92 8z"/>
<path d="M1403 1026 c-1 -6 -3 -26 -6 -43 -2 -18 -1 -33 4 -33 5 0 6 -7 3 -15
-4 -8 -3 -23 0 -32 10 -24 27 -2 28 36 1 34 13 41 23 12 9 -28 38 -58 53 -54
13 5 18 124 5 136 -11 12 -31 -13 -26 -33 8 -29 -10 -24 -34 8 -21 29 -49 38
-50 18z"/>
<path d="M1576 1023 c-3 -8 -2 -11 4 -8 12 8 51 -35 43 -49 -11 -17 -9 -52 4
-64 17 -17 28 4 28 53 0 30 5 42 22 50 33 17 14 30 -44 31 -36 1 -54 -3 -57
-13z"/>
<path d="M1775 1032 c-22 -8 -26 -18 -27 -75 0 -47 6 -55 54 -62 54 -9 77 17
71 81 -2 27 -5 49 -6 50 -7 7 -76 11 -92 6z m58 -37 c4 -8 4 -23 2 -35 -2 -11
1 -20 6 -20 6 0 7 -4 4 -10 -6 -10 -54 -10 -56 0 -5 20 -7 57 -4 68 6 17 42
15 48 -3z"/>
<path d="M1945 1024 c-9 -9 -14 -23 -11 -31 3 -8 6 -21 6 -29 0 -8 3 -13 8
-12 4 1 23 -1 42 -5 38 -8 27 -25 -13 -23 -20 1 -36 -10 -37 -25 0 -3 18 -5
40 -6 22 0 40 3 40 9 0 5 5 6 10 3 6 -3 10 0 11 7 0 7 2 21 4 31 2 10 -3 21
-11 24 -8 3 -12 8 -10 12 3 4 -8 6 -24 5 -17 -1 -31 4 -34 12 -4 10 4 14 29
14 37 0 54 14 29 24 -28 11 -62 6 -79 -10z"/>
</g>
</svg>
